<svg width="24" height="25" viewBox="0 0 24 25" fill="none" xmlns="http://www.w3.org/2000/svg">
<mask id="mask0_921_8651" style="mask-type:alpha" maskUnits="userSpaceOnUse" x="0" y="0" width="24" height="25">
<rect y="0.5" width="24" height="24" fill="#D9D9D9"/>
</mask>
<g mask="url(#mask0_921_8651)">
<path d="M16 8.9L7.09999 17.8C6.91665 17.9833 6.68332 18.075 6.39999 18.075C6.11665 18.075 5.88332 17.9833 5.69999 17.8C5.51665 17.6167 5.42499 17.3833 5.42499 17.1C5.42499 16.8167 5.51665 16.5833 5.69999 16.4L14.6 7.5H6.99999C6.71665 7.5 6.47915 7.40417 6.28749 7.2125C6.09582 7.02083 5.99999 6.78333 5.99999 6.5C5.99999 6.21667 6.09582 5.97917 6.28749 5.7875C6.47915 5.59583 6.71665 5.5 6.99999 5.5H17C17.2833 5.5 17.5208 5.59583 17.7125 5.7875C17.9042 5.97917 18 6.21667 18 6.5V16.5C18 16.7833 17.9042 17.0208 17.7125 17.2125C17.5208 17.4042 17.2833 17.5 17 17.5C16.7167 17.5 16.4792 17.4042 16.2875 17.2125C16.0958 17.0208 16 16.7833 16 16.5V8.9Z" fill="#181818"/>
</g>
</svg>
