<svg width="24" height="24" viewBox="0 0 24 24" fill="none" xmlns="http://www.w3.org/2000/svg">
<mask id="mask0_4135_20319" style="mask-type:alpha" maskUnits="userSpaceOnUse" x="0" y="0" width="24" height="24">
<rect width="24" height="24" fill="#D9D9D9"/>
</mask>
<g mask="url(#mask0_4135_20319)">
<path d="M9.00012 19.6155C8.5559 19.6155 8.17562 19.4573 7.85927 19.141C7.54293 18.8246 7.38477 18.4443 7.38477 18.0001C7.38477 17.5559 7.54293 17.1756 7.85927 16.8593C8.17562 16.5429 8.5559 16.3848 9.00012 16.3848C9.44433 16.3848 9.82462 16.5429 10.141 16.8593C10.4573 17.1756 10.6155 17.5559 10.6155 18.0001C10.6155 18.4443 10.4573 18.8246 10.141 19.141C9.82462 19.4573 9.44433 19.6155 9.00012 19.6155ZM15.0001 19.6155C14.5559 19.6155 14.1756 19.4573 13.8593 19.141C13.5429 18.8246 13.3848 18.4443 13.3848 18.0001C13.3848 17.5559 13.5429 17.1756 13.8593 16.8593C14.1756 16.5429 14.5559 16.3848 15.0001 16.3848C15.4443 16.3848 15.8246 16.5429 16.141 16.8593C16.4573 17.1756 16.6155 17.5559 16.6155 18.0001C16.6155 18.4443 16.4573 18.8246 16.141 19.141C15.8246 19.4573 15.4443 19.6155 15.0001 19.6155ZM9.00012 13.6155C8.5559 13.6155 8.17562 13.4573 7.85927 13.141C7.54293 12.8246 7.38477 12.4443 7.38477 12.0001C7.38477 11.5559 7.54293 11.1756 7.85927 10.8593C8.17562 10.5429 8.5559 10.3848 9.00012 10.3848C9.44433 10.3848 9.82462 10.5429 10.141 10.8593C10.4573 11.1756 10.6155 11.5559 10.6155 12.0001C10.6155 12.4443 10.4573 12.8246 10.141 13.141C9.82462 13.4573 9.44433 13.6155 9.00012 13.6155ZM15.0001 13.6155C14.5559 13.6155 14.1756 13.4573 13.8593 13.141C13.5429 12.8246 13.3848 12.4443 13.3848 12.0001C13.3848 11.5559 13.5429 11.1756 13.8593 10.8593C14.1756 10.5429 14.5559 10.3848 15.0001 10.3848C15.4443 10.3848 15.8246 10.5429 16.141 10.8593C16.4573 11.1756 16.6155 11.5559 16.6155 12.0001C16.6155 12.4443 16.4573 12.8246 16.141 13.141C15.8246 13.4573 15.4443 13.6155 15.0001 13.6155ZM9.00012 7.61547C8.5559 7.61547 8.17562 7.4573 7.85927 7.14097C7.54293 6.82462 7.38477 6.44433 7.38477 6.00012C7.38477 5.5559 7.54293 5.17562 7.85927 4.85927C8.17562 4.54293 8.5559 4.38477 9.00012 4.38477C9.44433 4.38477 9.82462 4.54293 10.141 4.85927C10.4573 5.17562 10.6155 5.5559 10.6155 6.00012C10.6155 6.44433 10.4573 6.82462 10.141 7.14097C9.82462 7.4573 9.44433 7.61547 9.00012 7.61547ZM15.0001 7.61547C14.5559 7.61547 14.1756 7.4573 13.8593 7.14097C13.5429 6.82462 13.3848 6.44433 13.3848 6.00012C13.3848 5.5559 13.5429 5.17562 13.8593 4.85927C14.1756 4.54293 14.5559 4.38477 15.0001 4.38477C15.4443 4.38477 15.8246 4.54293 16.141 4.85927C16.4573 5.17562 16.6155 5.5559 16.6155 6.00012C16.6155 6.44433 16.4573 6.82462 16.141 7.14097C15.8246 7.4573 15.4443 7.61547 15.0001 7.61547Z" fill="#999999"/>
</g>
</svg>
