<svg width="110" height="34" viewBox="0 0 110 34" fill="none" xmlns="http://www.w3.org/2000/svg">
<path d="M8.5 0.5H101.5C105.642 0.5 109 3.85786 109 8V26C109 30.1421 105.642 33.5 101.5 33.5H8.5C4.35786 33.5 1 30.1421 1 26V8C1 3.85786 4.35786 0.5 8.5 0.5Z" fill="white"/>
<path d="M8.5 0.5H101.5C105.642 0.5 109 3.85786 109 8V26C109 30.1421 105.642 33.5 101.5 33.5H8.5C4.35786 33.5 1 30.1421 1 26V8C1 3.85786 4.35786 0.5 8.5 0.5Z" stroke="#F6F6F6"/>
<path d="M23.5 10.5C23.5 9.67157 24.1716 9 25 9H28.8787C29.2765 9 29.658 9.15804 29.9393 9.43934L33.0607 12.5607C33.342 12.842 33.5 13.2235 33.5 13.6213V19.5C33.5 20.3284 32.8284 21 32 21H31V17.6213C31 16.8257 30.6839 16.0626 30.1213 15.5L27 12.3787C26.4374 11.8161 25.6743 11.5 24.8787 11.5H23.5V10.5Z" fill="#A3AED0"/>
<path d="M21 13C20.1716 13 19.5 13.6716 19.5 14.5V23.5C19.5 24.3284 20.1716 25 21 25H28C28.8284 25 29.5 24.3284 29.5 23.5V17.6213C29.5 17.2235 29.342 16.842 29.0607 16.5607L25.9393 13.4393C25.658 13.158 25.2765 13 24.8787 13H21Z" fill="#A3AED0"/>
<path d="M51.9785 13.168H50.625V19.0195C51.3952 18.9648 52.0378 18.9056 52.5527 18.8418L52.6074 19.6348C51.4681 19.8171 50.2786 19.9378 49.0391 19.9971C47.7995 20.0563 46.446 20.0905 44.9785 20.0996L44.8418 19.1836L46.4824 19.1768V13.168H45.1426V12.2793H51.9785V13.168ZM54.3984 15.834H56.4355V16.7363H54.3984V23.1074H53.332V10.9531H54.3984V15.834ZM47.5215 19.1562C48.1367 19.1426 48.8294 19.1175 49.5996 19.0811V13.168H47.5215V19.1562ZM60.5371 11.4043C61.1387 11.4089 61.6764 11.5251 62.1504 11.7529C62.6289 11.9808 63.0026 12.2998 63.2715 12.71C63.5449 13.1156 63.6816 13.5781 63.6816 14.0977C63.6816 14.6172 63.5449 15.082 63.2715 15.4922C63.0026 15.8978 62.6289 16.2145 62.1504 16.4424C61.6764 16.6657 61.1387 16.7773 60.5371 16.7773C59.9264 16.7773 59.3818 16.6657 58.9033 16.4424C58.4248 16.2145 58.0511 15.8978 57.7822 15.4922C57.5133 15.082 57.3789 14.6172 57.3789 14.0977C57.3789 13.5781 57.5133 13.1156 57.7822 12.71C58.0511 12.2998 58.4248 11.9808 58.9033 11.7529C59.3818 11.5251 59.9264 11.4089 60.5371 11.4043ZM60.5371 12.3066C60.1361 12.3066 59.7738 12.3841 59.4502 12.5391C59.1312 12.6895 58.8805 12.9014 58.6982 13.1748C58.516 13.4437 58.4271 13.7513 58.4316 14.0977C58.4271 14.4486 58.516 14.7607 58.6982 15.0342C58.8805 15.3076 59.1312 15.5218 59.4502 15.6768C59.7738 15.8271 60.1361 15.9023 60.5371 15.9023C60.9336 15.9023 61.2913 15.8271 61.6104 15.6768C61.9339 15.5218 62.1868 15.3076 62.3691 15.0342C62.5514 14.7607 62.6426 14.4486 62.6426 14.0977C62.6426 13.7513 62.5514 13.4437 62.3691 13.1748C62.1868 12.9014 61.9339 12.6895 61.6104 12.5391C61.2913 12.3841 60.9336 12.3066 60.5371 12.3066ZM67.127 17.2012H66.0605V10.9531H67.127V17.2012ZM67.127 20.7148H60.3047V22.082H67.5645V22.9434H59.252V19.9082H66.0605V18.6504H59.2246V17.7891H67.127V20.7148ZM73.334 13.5371C73.334 14.0339 73.4661 14.5055 73.7305 14.9521C73.9993 15.3942 74.3685 15.7816 74.8379 16.1143C75.3073 16.4469 75.8405 16.6999 76.4375 16.873L75.9453 17.7207C75.2253 17.5065 74.5941 17.1829 74.0518 16.75C73.5094 16.3125 73.0993 15.7975 72.8213 15.2051C72.557 15.8477 72.1559 16.4082 71.6182 16.8867C71.0804 17.3607 70.4492 17.7161 69.7246 17.9531L69.1914 17.1191C69.7884 16.9368 70.3216 16.668 70.791 16.3125C71.2604 15.9525 71.625 15.5332 71.8848 15.0547C72.1491 14.5716 72.2812 14.0658 72.2812 13.5371V13.2637H69.5332V12.4023H72.2812V10.8984H73.3613V12.4023H76.082V13.2637H73.334V13.5371ZM79.2676 18.1582H78.1875V15.2598H75.7266V14.3711H78.1875V10.9531H79.2676V18.1582ZM79.2676 22.9434H71.3242V18.7871H79.2676V22.9434ZM72.3906 22.0684H78.2148V19.6621H72.3906V22.0684ZM92.4062 19.0469H87.334V23.1074H86.2812V19.0469H81.2773V18.1719H92.4062V19.0469ZM83.7656 13.1406H89.8906V11.459H90.9707V16.6953H82.6992V11.459H83.7656V13.1406ZM89.8906 15.8203V14.0156H83.7656V15.8203H89.8906Z" fill="#747883"/>
</svg>
