<svg width="18" height="18" viewBox="0 0 18 18" fill="none" xmlns="http://www.w3.org/2000/svg">
<g opacity="0.4">
<path d="M8.59375 0.666016C10.6625 0.666016 12.3506 2.32454 12.3506 4.36621V8.35742H7.2627C6.89839 8.35761 6.61053 8.64096 6.61035 8.99902C6.61035 9.34891 6.89828 9.64044 7.2627 9.64062H12.3506V13.624C12.3506 15.6657 10.6629 17.333 8.57715 17.333H4.44824C2.37101 17.333 0.683665 15.6744 0.683594 13.6328V4.37402C0.683773 2.32417 2.37986 0.666016 4.45703 0.666016H8.59375ZM14.4668 6.125C14.7167 5.86674 15.125 5.86643 15.375 6.11621L17.8086 8.54102C17.9336 8.66602 18 8.825 18 9C17.9999 9.16649 17.9334 9.33267 17.8086 9.44922L15.375 11.875C15.2501 11.9996 15.0838 12.0663 14.9258 12.0664C14.7591 12.0664 14.5918 12 14.4668 11.875C14.2168 11.625 14.2168 11.2158 14.4668 10.9658L15.8008 9.6416H12.3506V8.35742H15.8008L14.4668 7.0332C14.2169 6.78334 14.2172 6.37504 14.4668 6.125Z" fill="#9F9FA5"/>
</g>
</svg>
