<svg width="24" height="24" viewBox="0 0 24 24" fill="none" xmlns="http://www.w3.org/2000/svg">
<g clip-path="url(#clip0_831_32414)">
<path opacity="0.4" fill-rule="evenodd" clip-rule="evenodd" d="M7.5 5.0625C6.15381 5.0625 5.0625 6.15381 5.0625 7.5V16.5C5.0625 17.8462 6.15381 18.9375 7.5 18.9375H16.5C17.8462 18.9375 18.9375 17.8462 18.9375 16.5V12C18.9375 11.6893 19.1893 11.4375 19.5 11.4375C19.8107 11.4375 20.0625 11.6893 20.0625 12V16.5C20.0625 18.4675 18.4675 20.0625 16.5 20.0625H7.5C5.53249 20.0625 3.9375 18.4675 3.9375 16.5V7.5C3.9375 5.53249 5.53249 3.9375 7.5 3.9375H12C12.3107 3.9375 12.5625 4.18934 12.5625 4.5C12.5625 4.81066 12.3107 5.0625 12 5.0625H7.5Z" fill="#9FECE9"/>
<path d="M9.866 14.9927L12.1187 14.6709C12.4437 14.6245 12.7448 14.4739 12.9769 14.2418L17.9829 9.23575C17.9829 9.23575 16.9102 9.23575 15.8375 8.16302C14.7648 7.0903 14.7648 6.01758 14.7648 6.01758L9.75873 11.0236C9.52663 11.2557 9.37606 11.5568 9.32964 11.8818L9.00783 14.1345C8.93631 14.6351 9.3654 15.0642 9.866 14.9927Z" fill="#0CB2AD"/>
<path opacity="0.4" d="M19.0555 6.01706L17.9828 4.94434C17.3904 4.35189 16.4298 4.35189 15.8374 4.94434L14.7646 6.01706C14.7646 6.01706 14.7646 7.08978 15.8374 8.16251C16.9101 9.23523 17.9828 9.23523 17.9828 9.23523L19.0555 8.1625C19.648 7.57006 19.648 6.60951 19.0555 6.01706Z" fill="#9FECE9"/>
</g>
<defs>
<clipPath id="clip0_831_32414">
<rect width="18" height="18" fill="white" transform="translate(3 3)"/>
</clipPath>
</defs>
</svg>
