<svg width="24" height="24" viewBox="0 0 24 24" fill="none" xmlns="http://www.w3.org/2000/svg">
<path d="M13 6.5C13 7.32843 13.6716 8 14.5 8C15.3284 8 16 7.32843 16 6.5V5.31121C16 5.1674 16 5.09549 16.0454 5.05132C16.0909 5.00714 16.1621 5.00914 16.3046 5.01315C17.3575 5.04276 17.9826 5.15447 18.4141 5.58594C18.9998 6.17172 19 7.11438 19 9V16C19 17.8856 18.9998 18.8283 18.4141 19.4141C17.8283 19.9998 16.8856 20 15 20H9C7.11438 20 6.17172 19.9998 5.58594 19.4141C5.00015 18.8283 5 17.8856 5 16V9C5 7.11438 5.00015 6.17172 5.58594 5.58594C6.01741 5.15447 6.64247 5.04276 7.69539 5.01315C7.83788 5.00914 7.90913 5.00714 7.95456 5.05132C8 5.09549 8 5.1674 8 5.31121V6.5C8 7.32843 8.67157 8 9.5 8C10.3284 8 11 7.32843 11 6.5V5.3C11 5.15858 11 5.08787 11.0439 5.04393C11.0879 5 11.1586 5 11.3 5H12.7C12.8414 5 12.9121 5 12.9561 5.04393C13 5.08787 13 5.15858 13 5.3V6.5Z" fill="#9FECE9"/>
<path d="M9.5 3.5V6.5" stroke="#0CB2AD" stroke-linecap="round"/>
<path d="M14.5 3.5V6.5" stroke="#0CB2AD" stroke-linecap="round"/>
<path d="M9.5 10.5L14.5 10.5" stroke="#0CB2AD" stroke-linecap="round"/>
<path d="M9.5 13.5L14.5 13.5" stroke="#0CB2AD" stroke-linecap="round"/>
<path d="M9.5 16.5L14.5 16.5" stroke="#0CB2AD" stroke-linecap="round"/>
</svg>
