<svg width="24" height="24" viewBox="0 0 24 24" fill="none" xmlns="http://www.w3.org/2000/svg">
<g clip-path="url(#clip0_224_7420)">
<path fill-rule="evenodd" clip-rule="evenodd" d="M3.40015 9.34415C3.79324 8.07007 4.46836 6.88085 5.3981 5.87876L6.99948 6.80331C8.33282 7.57312 9.99948 6.61087 9.99948 5.07126V3.22214C11.3322 2.91801 12.6996 2.92795 13.9996 3.22455L13.9996 5.07129C13.9996 6.61089 15.6662 7.57314 16.9996 6.80334L18.6006 5.87898C19.0486 6.36306 19.4501 6.90424 19.7938 7.49955C20.1375 8.09484 20.4054 8.71307 20.6006 9.34308L18.9996 10.2675C17.6662 11.0373 17.6662 12.9618 18.9996 13.7316L20.5989 14.655C20.2058 15.929 19.5307 17.1183 18.601 18.1203L16.9996 17.1958C15.6662 16.426 13.9996 17.3882 13.9996 18.9278V20.777C12.6669 21.0811 11.2994 21.0711 9.99948 20.7745L9.99948 18.9278C9.99948 17.3882 8.33282 16.4259 6.99948 17.1957L5.39843 18.1201C4.95043 17.636 4.549 17.0948 4.20531 16.4995C3.86161 15.9042 3.59365 15.286 3.39844 14.656L4.99946 13.7316C6.33279 12.9618 6.33279 11.0373 4.99946 10.2675L3.40015 9.34415ZM11.9995 13.9995C13.1041 13.9995 13.9995 13.1041 13.9995 11.9995C13.9995 10.895 13.1041 9.99954 11.9995 9.99954C10.895 9.99954 9.99954 10.895 9.99954 11.9995C9.99954 13.1041 10.895 13.9995 11.9995 13.9995Z" fill="#EBECF0"/>
<circle cx="12" cy="12" r="2" stroke="#A3AEBA"/>
<path d="M5.39881 5.87909C4.46907 6.88119 3.79395 8.0704 3.40085 9.34448L5.00016 10.2678C6.3335 11.0376 6.3335 12.9621 5.00016 13.7319L3.39914 14.6563C3.59436 15.2863 3.86232 15.9046 4.20602 16.4999C4.54971 17.0952 4.95113 17.6363 5.39914 18.1204L7.00019 17.196C8.33352 16.4262 10.0002 17.3885 10.0002 18.9281L10.0002 20.7749C11.3001 21.0715 12.6676 21.0814 14.0003 20.7773L14.0003 18.9282C14.0003 17.3886 15.6669 16.4263 17.0003 17.1961L18.6017 18.1207C19.5314 17.1186 20.2065 15.9294 20.5996 14.6553L19.0003 13.7319C17.6669 12.9621 17.6669 11.0376 19.0003 10.2678L20.6013 9.34342C20.4061 8.7134 20.1382 8.09517 19.7945 7.49989C19.4508 6.90458 19.0493 6.3634 18.6013 5.87932L17.0003 6.80368C15.6669 7.57348 14.0003 6.61123 14.0003 5.07162L14.0003 3.22489C12.7003 2.92828 11.3329 2.91835 10.0002 3.22248L10.0002 5.0716C10.0002 6.6112 8.33352 7.57345 7.00019 6.80365L5.39881 5.87909Z" stroke="#A3AEBA" stroke-linejoin="round"/>
</g>
<defs>
<clipPath id="clip0_224_7420">
<rect width="24" height="24" fill="white"/>
</clipPath>
</defs>
</svg>
