<svg width="24" height="24" viewBox="0 0 24 24" fill="none" xmlns="http://www.w3.org/2000/svg">
<g clip-path="url(#clip0_916_29857)">
<path d="M10.0986 4.00488C10.3276 4.02757 10.5429 4.12883 10.707 4.29297L12.4141 6H21L21.1025 6.00488C21.6067 6.05621 22 6.48232 22 7V17C22 18.6569 20.6569 20 19 20H5C3.39489 20 2.08421 18.7394 2.00391 17.1543L2 17V5L2.00488 4.89746C2.05621 4.39333 2.48232 4 3 4H10L10.0986 4.00488ZM7 14C6.44772 14 6 14.4477 6 15C6 15.5523 6.44772 16 7 16H9C9.55228 16 10 15.5523 10 15C10 14.4477 9.55228 14 9 14H7ZM13 10C12.4477 10 12 10.4477 12 11V15C12 15.5523 12.4477 16 13 16H17C17.5523 16 18 15.5523 18 15V11C18 10.4477 17.5523 10 17 10H13ZM16 12V14H14V12H16ZM7 10C6.44772 10 6 10.4477 6 11C6 11.5523 6.44772 12 7 12H9C9.55228 12 10 11.5523 10 11C10 10.4477 9.55228 10 9 10H7Z" fill="#EBECF0"/>
</g>
<defs>
<clipPath id="clip0_916_29857">
<rect width="24" height="24" fill="white"/>
</clipPath>
</defs>
</svg>
