<svg width="32" height="32" viewBox="0 0 32 32" fill="none" xmlns="http://www.w3.org/2000/svg">
<path fill-rule="evenodd" clip-rule="evenodd" d="M14.3992 5.6002C9.53911 5.6002 5.59922 9.54009 5.59922 14.4002C5.59922 19.2603 9.53911 23.2002 14.3992 23.2002C16.8296 23.2002 19.028 22.2165 20.6218 20.6227C22.2156 19.0289 23.1992 16.8306 23.1992 14.4002C23.1992 9.54009 19.2593 5.6002 14.3992 5.6002ZM3.19922 14.4002C3.19922 8.21461 8.21363 3.2002 14.3992 3.2002C20.5848 3.2002 25.5992 8.21461 25.5992 14.4002C25.5992 17.0602 24.6707 19.5051 23.122 21.4259L28.4477 26.7517C28.9164 27.2203 28.9164 27.9801 28.4477 28.4487C27.9791 28.9174 27.2193 28.9174 26.7507 28.4487L21.4249 23.123C19.5041 24.6717 17.0593 25.6002 14.3992 25.6002C8.21363 25.6002 3.19922 20.5858 3.19922 14.4002Z" fill="#1A2448"/>
</svg>
