<svg width="137" height="23" viewBox="0 0 137 23" fill="none" xmlns="http://www.w3.org/2000/svg">
<path opacity="0.6" d="M0.92 23V0.344H5.592V19.096H15.32V23H0.92ZM23.7007 0.344V23H19.0287V0.344H23.7007ZM28.1688 23V0.344H32.8408V10.392H33.1608L41.3528 0.344H47.0488L38.6008 10.52L47.1128 23H41.4808L35.2088 13.656L32.8408 16.536V23H28.1688ZM49.9962 23V0.344H65.1642V4.248H54.6682V9.752H64.3962V13.592H54.6682V19.096H65.2282V23H49.9962ZM68.0287 0.375H71.6537L76.06 17.875H76.2475L80.8412 0.375H84.4037L88.9975 17.875H89.185L93.5912 0.375H97.2162L90.935 23H87.4662L82.7162 6.09375H82.5287L77.7787 23H74.31L68.0287 0.375ZM100.669 0.375H114.856V3.34375H104.106V10.1875H114.106V13.125H104.106V20.0312H114.981V23H100.669V0.375ZM119.715 0.375H127.996C129.559 0.375 130.876 0.630208 131.949 1.14062C133.022 1.65104 133.824 2.35417 134.356 3.25C134.887 4.14583 135.152 5.16667 135.152 6.3125C135.152 7.63542 134.798 8.69271 134.09 9.48438C133.392 10.2656 132.475 10.8021 131.34 11.0938V11.3125C132.121 11.3542 132.871 11.6042 133.59 12.0625C134.309 12.5208 134.892 13.1667 135.34 14C135.798 14.8229 136.027 15.7917 136.027 16.9062C136.027 18.0938 135.751 19.1458 135.199 20.0625C134.647 20.9792 133.798 21.6979 132.652 22.2188C131.507 22.7396 130.08 23 128.371 23H119.715V0.375ZM128.059 20.0625C129.611 20.0521 130.757 19.75 131.496 19.1562C132.246 18.5521 132.621 17.75 132.621 16.75C132.621 16.0208 132.439 15.3594 132.074 14.7656C131.71 14.1719 131.189 13.7031 130.512 13.3594C129.845 13.0156 129.069 12.8438 128.184 12.8438H123.152V20.0625H128.059ZM127.715 10.1562C128.475 10.1458 129.163 9.99479 129.777 9.70312C130.402 9.41146 130.892 9 131.246 8.46875C131.6 7.92708 131.777 7.30208 131.777 6.59375C131.777 5.61458 131.434 4.82292 130.746 4.21875C130.069 3.61458 129.08 3.3125 127.777 3.3125H123.152V10.1562H127.715Z" fill="#999999"/>
</svg>
